<svg width="15" height="15" viewBox="0 0 15 15" fill="none" xmlns="http://www.w3.org/2000/svg">
<path d="M11.2145 1.25592C9.92119 1.25592 8.77872 1.9052 8.09599 2.89453C8.09599 2.89453 7.86547 3.2395 7.49984 3.2395C7.13453 3.2395 6.90401 2.89453 6.90401 2.89453C6.22095 1.9052 5.07914 1.25592 3.7855 1.25592C1.69469 1.25592 0 2.95061 0 5.04207C0 5.53592 0.097064 6.00583 0.268894 6.43835C1.32938 9.73132 6.0724 13.6027 7.49984 13.7441C8.9276 13.6027 13.67 9.73132 14.7311 6.43835C14.9029 6.00616 15 5.53592 15 5.04207C15 2.95061 13.3053 1.25592 11.2145 1.25592Z" fill="#FF4135"/>
</svg>
